<mxfile host="app.diagrams.net" agent="Mozilla/5.0 (Windows NT 10.0; Win64; x64) AppleWebKit/537.36 (KHTML, like Gecko) Chrome/132.0.0.0 Safari/537.36 OPR/117.0.0.0" version="26.2.7">
  <diagram name="Página-1" id="UAhy9ePkweI_h3bUBA_6">
    <mxGraphModel dx="833" dy="1622" grid="1" gridSize="10" guides="1" tooltips="1" connect="1" arrows="1" fold="1" page="1" pageScale="1" pageWidth="827" pageHeight="1169" math="0" shadow="0">
      <root>
        <mxCell id="0" />
        <mxCell id="1" parent="0" />
        <mxCell id="zZCghELHpFpbN1-zydZC-4" value="" style="edgeStyle=orthogonalEdgeStyle;rounded=0;orthogonalLoop=1;jettySize=auto;html=1;" edge="1" parent="1" source="zZCghELHpFpbN1-zydZC-1" target="zZCghELHpFpbN1-zydZC-3">
          <mxGeometry relative="1" as="geometry" />
        </mxCell>
        <mxCell id="zZCghELHpFpbN1-zydZC-1" value="Início" style="rounded=1;whiteSpace=wrap;html=1;fontSize=12;glass=0;strokeWidth=1;shadow=0;" vertex="1" parent="1">
          <mxGeometry x="390" y="-1000" width="60" height="40" as="geometry" />
        </mxCell>
        <mxCell id="zZCghELHpFpbN1-zydZC-2" value="Fim" style="rounded=1;whiteSpace=wrap;html=1;fontSize=12;glass=0;strokeWidth=1;shadow=0;" vertex="1" parent="1">
          <mxGeometry x="595" y="-330" width="60" height="40" as="geometry" />
        </mxCell>
        <mxCell id="zZCghELHpFpbN1-zydZC-6" value="" style="edgeStyle=orthogonalEdgeStyle;rounded=0;orthogonalLoop=1;jettySize=auto;html=1;" edge="1" parent="1" source="zZCghELHpFpbN1-zydZC-3" target="zZCghELHpFpbN1-zydZC-5">
          <mxGeometry relative="1" as="geometry" />
        </mxCell>
        <mxCell id="zZCghELHpFpbN1-zydZC-3" value="&lt;div&gt;&lt;br&gt;&lt;/div&gt;&lt;div&gt;&lt;br&gt;&lt;/div&gt;Ler A" style="shape=manualInput;whiteSpace=wrap;html=1;" vertex="1" parent="1">
          <mxGeometry x="375" y="-890" width="90" height="60" as="geometry" />
        </mxCell>
        <mxCell id="zZCghELHpFpbN1-zydZC-8" value="" style="edgeStyle=orthogonalEdgeStyle;rounded=0;orthogonalLoop=1;jettySize=auto;html=1;" edge="1" parent="1" source="zZCghELHpFpbN1-zydZC-5" target="zZCghELHpFpbN1-zydZC-7">
          <mxGeometry relative="1" as="geometry" />
        </mxCell>
        <mxCell id="zZCghELHpFpbN1-zydZC-5" value="&lt;div&gt;&lt;br&gt;&lt;/div&gt;&lt;div&gt;&lt;br&gt;&lt;/div&gt;Ler B" style="shape=manualInput;whiteSpace=wrap;html=1;" vertex="1" parent="1">
          <mxGeometry x="375" y="-750" width="90" height="60" as="geometry" />
        </mxCell>
        <mxCell id="zZCghELHpFpbN1-zydZC-10" value="Verdadeiro" style="edgeStyle=orthogonalEdgeStyle;rounded=0;orthogonalLoop=1;jettySize=auto;html=1;" edge="1" parent="1" source="zZCghELHpFpbN1-zydZC-7" target="zZCghELHpFpbN1-zydZC-9">
          <mxGeometry relative="1" as="geometry" />
        </mxCell>
        <mxCell id="zZCghELHpFpbN1-zydZC-14" value="FALSO" style="edgeStyle=orthogonalEdgeStyle;rounded=0;orthogonalLoop=1;jettySize=auto;html=1;" edge="1" parent="1" source="zZCghELHpFpbN1-zydZC-7" target="zZCghELHpFpbN1-zydZC-13">
          <mxGeometry relative="1" as="geometry" />
        </mxCell>
        <mxCell id="zZCghELHpFpbN1-zydZC-7" value="A&amp;gt;B" style="rhombus;whiteSpace=wrap;html=1;" vertex="1" parent="1">
          <mxGeometry x="380" y="-620" width="80" height="80" as="geometry" />
        </mxCell>
        <mxCell id="zZCghELHpFpbN1-zydZC-18" style="edgeStyle=orthogonalEdgeStyle;rounded=0;orthogonalLoop=1;jettySize=auto;html=1;" edge="1" parent="1" source="zZCghELHpFpbN1-zydZC-9">
          <mxGeometry relative="1" as="geometry">
            <mxPoint x="625" y="-460" as="targetPoint" />
          </mxGeometry>
        </mxCell>
        <mxCell id="zZCghELHpFpbN1-zydZC-9" value="&quot;Menor valor = &quot; A" style="shape=display;whiteSpace=wrap;html=1;" vertex="1" parent="1">
          <mxGeometry x="560" y="-600" width="130" height="40" as="geometry" />
        </mxCell>
        <mxCell id="zZCghELHpFpbN1-zydZC-17" style="edgeStyle=orthogonalEdgeStyle;rounded=0;orthogonalLoop=1;jettySize=auto;html=1;exitX=1;exitY=0.5;exitDx=0;exitDy=0;exitPerimeter=0;" edge="1" parent="1" source="zZCghELHpFpbN1-zydZC-13">
          <mxGeometry relative="1" as="geometry">
            <mxPoint x="600" y="-430" as="targetPoint" />
          </mxGeometry>
        </mxCell>
        <mxCell id="zZCghELHpFpbN1-zydZC-13" value="&quot;Menor valor = &quot; B" style="shape=display;whiteSpace=wrap;html=1;" vertex="1" parent="1">
          <mxGeometry x="355" y="-450" width="130" height="40" as="geometry" />
        </mxCell>
        <mxCell id="zZCghELHpFpbN1-zydZC-19" value="" style="edgeStyle=orthogonalEdgeStyle;rounded=0;orthogonalLoop=1;jettySize=auto;html=1;" edge="1" parent="1" source="zZCghELHpFpbN1-zydZC-15" target="zZCghELHpFpbN1-zydZC-2">
          <mxGeometry relative="1" as="geometry" />
        </mxCell>
        <mxCell id="zZCghELHpFpbN1-zydZC-15" value="" style="ellipse;whiteSpace=wrap;html=1;aspect=fixed;" vertex="1" parent="1">
          <mxGeometry x="610" y="-445" width="30" height="30" as="geometry" />
        </mxCell>
      </root>
    </mxGraphModel>
  </diagram>
</mxfile>
